<svg xmlns="http://www.w3.org/2000/svg" style="display: none;">

  <symbol id="icon-instagram" viewBox="0 0 24 24">
    <g clip-path="url(#clip0_297016_396)">
    <path d="M23.9766 7.05607C23.9204 5.78085 23.7141 4.90416 23.4187 4.14449C23.114 3.33812 22.6451 2.61617 22.0309 2.01602C21.4307 1.40652 20.704 0.932921 19.907 0.632936C19.1429 0.337529 18.2708 0.131312 16.9956 0.0750879C15.7109 0.0141019 15.303 0 12.0446 0C8.78612 0 8.37827 0.0141019 7.0983 0.0703262C5.82308 0.126551 4.94639 0.332951 4.1869 0.628174C3.38035 0.932922 2.65841 1.40176 2.05825 2.01602C1.44876 2.61617 0.97534 3.34288 0.675172 4.13991C0.379765 4.90416 0.173548 5.77609 0.117324 7.0513C0.0563382 8.33604 0.0422363 8.7439 0.0422363 12.0023C0.0422363 15.2608 0.0563382 15.6686 0.112562 16.9486C0.168787 18.2238 0.375187 19.1005 0.670593 19.8602C0.97534 20.6666 1.44876 21.3885 2.05825 21.9887C2.65841 22.5982 3.38511 23.0718 4.18214 23.3718C4.94639 23.6672 5.81832 23.8734 7.09372 23.9296C8.37351 23.986 8.78155 23.9999 12.04 23.9999C15.2984 23.9999 15.7063 23.986 16.9863 23.9296C18.2615 23.8734 19.1382 23.6672 19.8977 23.3718C21.5106 22.7482 22.7858 21.4729 23.4094 19.8602C23.7046 19.096 23.911 18.2238 23.9672 16.9486C24.0235 15.6686 24.0376 15.2608 24.0376 12.0023C24.0376 8.7439 24.0328 8.33604 23.9766 7.05607ZM21.8153 16.8549C21.7637 18.027 21.5668 18.6599 21.4027 19.0819C20.9994 20.1274 20.1696 20.9572 19.1241 21.3605C18.7021 21.5246 18.0646 21.7215 16.8971 21.7729C15.6312 21.8293 15.2516 21.8433 12.0493 21.8433C8.84711 21.8433 8.4627 21.8293 7.2014 21.7729C6.0293 21.7215 5.39637 21.5246 4.97441 21.3605C4.4541 21.1682 3.9805 20.8634 3.59609 20.4649C3.19757 20.0758 2.89283 19.6069 2.70053 19.0866C2.53643 18.6647 2.33956 18.027 2.2881 16.8596C2.23169 15.5937 2.21777 15.2139 2.21777 12.0117C2.21777 8.80946 2.23169 8.42505 2.2881 7.16394C2.33956 5.99183 2.53643 5.3589 2.70053 4.93694C2.89283 4.41645 3.19757 3.94303 3.60085 3.55843C3.98984 3.15992 4.45868 2.85517 4.97917 2.66306C5.40113 2.49896 6.03882 2.30209 7.20617 2.25044C8.47204 2.19422 8.85187 2.18011 12.0539 2.18011C15.2609 2.18011 15.6405 2.19422 16.9018 2.25044C18.0739 2.30209 18.7069 2.49896 19.1288 2.66306C19.6491 2.85517 20.1227 3.15992 20.5072 3.55843C20.9057 3.94761 21.2104 4.41645 21.4027 4.93694C21.5668 5.3589 21.7637 5.99641 21.8153 7.16394C21.8716 8.42981 21.8857 8.80946 21.8857 12.0117C21.8857 15.2139 21.8716 15.589 21.8153 16.8549Z" fill="#F4F4FD"/>
    <path d="M12.0446 5.83703C8.64091 5.83703 5.87933 8.59844 5.87933 12.0023C5.87933 15.4062 8.64091 18.1676 12.0446 18.1676C15.4485 18.1676 18.2099 15.4062 18.2099 12.0023C18.2099 8.59844 15.4485 5.83703 12.0446 5.83703ZM12.0446 16.0016C9.83646 16.0016 8.04534 14.2106 8.04534 12.0023C8.04534 9.79398 9.83646 8.00305 12.0446 8.00305C14.2529 8.00305 16.0438 9.79398 16.0438 12.0023C16.0438 14.2106 14.2529 16.0016 12.0446 16.0016Z" fill="#F4F4FD"/>
    <path d="M19.8931 5.59332C19.8931 6.38816 19.2486 7.03263 18.4536 7.03263C17.6588 7.03263 17.0143 6.38816 17.0143 5.59332C17.0143 4.79831 17.6588 4.15401 18.4536 4.15401C19.2486 4.15401 19.8931 4.79831 19.8931 5.59332Z" fill="#F4F4FD"/>
    </g>
    <defs>
    <clipPath id="clip0_297016_396">
    <rect width="24" height="24" fill="white"/>
    </clipPath>
    </defs>
  </symbol>

  <symbol id="icon-twitter" viewBox="0 0 24 24"  fill="none">
    <path d="M17.75 3H20.8175L14.1175 10.6246L22 21H15.8287L10.995 14.7062L5.46375 21H2.395L9.56125 12.8441L2 3H8.32875L12.6975 8.75131L17.75 3ZM16.675 19.1727H18.375L7.40375 4.73172H5.58125L16.675 19.1727Z" fill="#F4F4FD"/>
  </symbol>

  <symbol id="icon-facebook" viewBox="0 0 24 24" fill="none">
    <path d="M15.997 3.985H18.188V0.169C17.81 0.117 16.51 0 14.996 0C11.837 0 9.67301 1.987 9.67301 5.639V9H6.18701V13.266H9.67301V24H13.947V13.267H17.292L17.823 9.001H13.946V6.062C13.947 4.829 14.279 3.985 15.997 3.985Z" fill="#F4F4FD"/>
  </symbol>

  <symbol id="icon-linkedin" viewBox="0 0 24 24" fill="none">
    <g clip-path="url(#clip0_297016_412)">
    <path d="M23.994 24.0001L24 23.9991V15.1971C24 10.8911 23.073 7.57406 18.039 7.57406C15.619 7.57406 13.995 8.90206 13.332 10.1611H13.262V7.97606H8.489V23.9991H13.459V16.0651C13.459 13.9761 13.855 11.9561 16.442 11.9561C18.991 11.9561 19.029 14.3401 19.029 16.1991V24.0001H23.994Z" fill="#F4F4FD"/>
    <path d="M0.396002 7.97695H5.372V24H0.396002V7.97695Z" fill="#F4F4FD"/>
    <path d="M2.882 0C1.291 0 0 1.291 0 2.882C0 4.473 1.291 5.791 2.882 5.791C4.473 5.791 5.764 4.473 5.764 2.882C5.763 1.291 4.472 0 2.882 0Z" fill="#F4F4FD"/>
    </g>
    <defs>
    <clipPath id="clip0_297016_412">
    <rect width="24" height="24" fill="white"/>
    </clipPath>
    </defs>
  </symbol>

  <symbol id="icon-antena" viewBox="0 0 24 24" fill="none">
    <svg width="60" height="64" viewBox="0 0 60 64" fill="none" xmlns="http://www.w3.org/2000/svg">
    <path d="M59.4048 44.1952L42.5184 27.1851L44.3925 17.9541C44.8761 18.1429 45.3903 18.2416 45.9093 18.2453H45.9221C48.3067 18.2735 50.2625 16.3633 50.2908 13.9788C50.3191 11.5943 48.4088 9.6384 46.0243 9.61013C43.6397 9.582 41.6839 11.4921 41.6556 13.8767C41.6496 14.3869 41.734 14.8941 41.9051 15.3749L31.9851 16.5856L15.8037 0.32C15.6052 0.117467 15.3343 0.00226667 15.0507 0C14.7707 0.00146667 14.5025 0.112933 14.304 0.3104L11.2789 3.3184C10.8625 3.73493 10.8625 4.41013 11.2789 4.82667L12.9067 6.47787C6.60053 18.0737 8.6488 32.4335 17.9456 41.8037C18.0309 41.8853 18.1299 41.9513 18.2379 41.9989C18.1707 42.3599 18.1356 42.7261 18.1333 43.0933V55.4667H5.33333C2.38933 55.4701 0.00346667 57.856 0 60.8V62.9333C0 63.5224 0.4776 64 1.06667 64H50.1333C50.7224 64 51.2 63.5224 51.2 62.9333V60.8C51.1965 57.856 48.8107 55.4701 45.8667 55.4667H33.0667V49.9829C35.0719 50.4035 37.1149 50.6179 39.1637 50.6229C44.08 50.6176 48.918 49.392 53.2437 47.056L54.88 48.7019C55.0785 48.9044 55.3495 49.0196 55.6331 49.0219C55.9131 49.0204 56.1812 48.9089 56.3797 48.7115L59.4048 45.7035C59.8212 45.2869 59.8212 44.6117 59.4048 44.1952ZM44.4181 12.4661C45.2535 11.6352 46.6043 11.6389 47.4351 12.4743C48.266 13.3096 48.2623 14.6604 47.4269 15.4912C47.0271 15.8889 46.486 16.1121 45.922 16.112H45.9156C44.7375 16.1059 43.7872 15.1459 43.7933 13.9676C43.7963 13.4036 44.0224 12.8639 44.4223 12.4661H44.4181ZM41.9072 19.4752L40.7104 25.3664L38.3595 23.0016L41.9072 19.4752ZM40.6955 17.6715L36.8555 21.4891L33.8848 18.5024L40.6955 17.6715ZM45.8667 57.6C47.634 57.6 49.0667 59.0327 49.0667 60.8V61.8667H2.13333V60.8C2.13333 59.0327 3.566 57.6 5.33333 57.6H45.8667ZM30.9333 53.3333V55.4667H20.2667V53.3333H30.9333ZM20.2667 51.2V43.0933C20.2667 40.5056 22.6592 38.4 25.6 38.4C28.5408 38.4 30.9333 40.5056 30.9333 43.0933V51.2H20.2667ZM33.0667 47.808V43.0933C33.0667 39.3291 29.7173 36.2667 25.6 36.2667C22.9379 36.2259 20.4485 37.5809 19.0379 39.8389C10.9224 31.2913 9.09493 18.5485 14.4807 8.06467L51.6843 45.4816C45.9395 48.404 39.354 49.2268 33.0667 47.808ZM55.6448 46.4405L15.04 5.59147L13.5307 4.07893L15.04 2.57493L30.9099 18.5344C30.9173 18.5344 30.9216 18.5483 30.9291 18.5536L57.1584 44.9365L55.6448 46.4405Z" fill="#2E2F42"/>
    <path d="M25.6096 40.5333H25.6C23.8327 40.5307 22.3979 41.9612 22.3952 43.7285C22.3925 45.4959 23.8231 46.9307 25.5904 46.9333H25.6C27.3673 46.936 28.8021 45.5055 28.8048 43.7381C28.8075 41.9708 27.3769 40.536 25.6096 40.5333ZM26.3563 44.4896C26.1555 44.6893 25.8833 44.8011 25.6 44.8C25.0109 44.7969 24.5359 44.3169 24.5389 43.7279C24.5404 43.4459 24.6535 43.176 24.8533 42.9771C25.0519 42.7796 25.32 42.6681 25.6 42.6667C26.1891 42.6697 26.6641 43.1497 26.6611 43.7388C26.6596 44.0208 26.5465 44.2907 26.3467 44.4896H26.3563Z" fill="#4D5AE5"/>
    </svg>
  </symbol>

  <symbol id="icon-clock" viewBox="0 0 24 24" fill="none">
    <svg width="64" height="64" viewBox="0 0 64 64" fill="none" xmlns="http://www.w3.org/2000/svg">
    <path d="M62.5933 30.6025C62.5899 13.6978 48.8828 -0.00341734 31.9775 6.39362e-07C15.0728 0.00341861 1.37158 13.7109 1.375 30.6157C1.37793 43.9316 9.98877 55.7178 22.6738 59.7681C22.7949 59.8062 22.9209 59.8257 23.0474 59.8252C23.2886 59.8247 23.5249 59.7603 23.7324 59.6377C24.0024 59.478 24.2041 59.2241 24.2988 58.9248L32.0288 34.4248C34.1421 34.4141 35.8462 32.6919 35.835 30.5791C35.8242 28.4658 34.1025 26.7617 31.9893 26.7725C31.4209 26.7749 30.8599 26.9058 30.3491 27.1553L20.1372 16.9419C19.6304 16.4526 18.8232 16.4668 18.334 16.9731C17.8564 17.4678 17.8564 18.251 18.334 18.7456L28.5405 28.9639C27.7573 30.5625 28.2051 32.4922 29.6133 33.582L22.248 56.9277C7.69238 51.5659 0.239258 35.4199 5.60108 20.8643C10.9629 6.30859 27.1089 -1.14453 41.6646 4.21729C56.2202 9.5791 63.6733 25.7256 58.3115 40.2808C55.6919 47.3921 50.3096 53.1431 43.3872 56.2275L42.5913 52.479C42.4458 51.79 41.7686 51.3496 41.0796 51.4956C40.8623 51.542 40.6606 51.6441 40.4946 51.792L32.8208 58.6431C32.2944 59.1113 32.2476 59.9175 32.7163 60.4439C32.8687 60.6148 33.064 60.7417 33.2827 60.8115L43.0801 63.9385C43.7505 64.1538 44.4688 63.7852 44.6841 63.1143C44.7524 62.9024 44.7637 62.6768 44.7178 62.459L43.9356 58.7808C55.2642 54.0049 62.6196 42.8965 62.5933 30.6025ZM31.9844 29.3272C32.6885 29.3272 33.2598 29.8984 33.2598 30.6025C33.2598 31.3071 32.6885 31.8779 31.9844 31.8779C31.2798 31.8779 30.709 31.3071 30.709 30.6025C30.709 29.8984 31.2798 29.3272 31.9844 29.3272ZM36.1851 59.0552L40.5532 55.1587L41.7588 60.8394L36.1851 59.0552Z" fill="#2E2F42"/>
    <path d="M30.709 6.37011V8.92089C30.709 9.62548 31.2798 10.1963 31.9844 10.1963C32.6885 10.1963 33.2597 9.62548 33.2597 8.92089V6.37011C33.2597 5.66601 32.6885 5.09472 31.9844 5.09472C31.2798 5.09472 30.709 5.66601 30.709 6.37011Z" fill="#4D5AE5"/>
    <path d="M7.75195 29.3271C7.04736 29.3271 6.47656 29.8984 6.47656 30.6025C6.47656 31.3071 7.04736 31.8779 7.75195 31.8779H10.3027C11.0073 31.8779 11.5781 31.3071 11.5781 30.6025C11.5781 29.8984 11.0073 29.3271 10.3027 29.3271H7.75195Z" fill="#4D5AE5"/>
    <path d="M56.2162 31.8779C56.9208 31.8779 57.4916 31.3071 57.4916 30.6025C57.4916 29.8984 56.9208 29.3271 56.2162 29.3271H53.6655C52.9614 29.3271 52.3901 29.8984 52.3901 30.6025C52.3901 31.3071 52.9614 31.8779 53.6655 31.8779H56.2162Z" fill="#4D5AE5"/>
    </svg>
  </symbol>

  <symbol id="icon-diagram" viewBox="0 0 24 24" fill="none">
    <svg width="64" height="64" viewBox="0 0 64 64" fill="none" xmlns="http://www.w3.org/2000/svg">
    <g clip-path="url(#clip0_1065748_1968)">
    <path d="M29.851 29.9292H31.9833V39.5242H29.851V29.9292Z" fill="#4D5AE5"/>
    <path d="M38.3799 34.1936H40.5121V39.5242H38.3799V34.1936Z" fill="#4D5AE5"/>
    <path d="M21.3222 37.392H23.4544V39.5242H21.3222V37.392Z" fill="#4D5AE5"/>
    <path d="M14.9255 36.3258H17.0577V39.5241H14.9255V36.3258Z" fill="#4D5AE5"/>
    <path d="M3.19833 56.5819H54.3715C56.1378 56.5819 57.5699 55.1499 57.5699 53.3836V49.1192C57.5699 47.3529 56.1378 45.9208 54.3715 45.9208H53.3054V19.3342L59.3611 13.5976C60.7666 14.2905 62.4678 13.8699 63.3876 12.6003C64.308 11.3311 64.1789 9.58361 63.0826 8.46336C61.9863 7.34311 60.2424 7.17601 58.953 8.06773C57.6641 8.95997 57.206 10.6513 57.8681 12.0719L53.3054 16.3972V13.9376C53.3054 12.1713 51.8734 10.7393 50.1071 10.7393H7.46276C5.6965 10.7393 4.26443 12.1713 4.26443 13.9376V45.9208H3.19833C1.43206 45.9208 0 47.3529 0 49.1192V53.3836C0 55.1499 1.43206 56.5819 3.19833 56.5819ZM60.7682 9.67314C61.3569 9.67314 61.8343 10.1505 61.8343 10.7393C61.8343 11.328 61.3569 11.8054 60.7682 11.8054C60.1794 11.8054 59.7021 11.328 59.7021 10.7393C59.7021 10.1505 60.1794 9.67314 60.7682 9.67314ZM6.39665 13.9376C6.39665 13.3488 6.874 12.8715 7.46276 12.8715H50.1071C50.6958 12.8715 51.1732 13.3488 51.1732 13.9376V18.4149L49.041 20.4409V16.0698C49.041 15.481 48.5636 15.0037 47.9749 15.0037H9.59498C9.00622 15.0037 8.52887 15.481 8.52887 16.0698V42.7225C8.52887 43.3113 9.00622 43.7886 9.59498 43.7886H47.9749C48.5636 43.7886 49.041 43.3113 49.041 42.7225V23.3738L51.1732 21.3535V45.9208H6.39665V13.9376ZM15.9916 27.797C14.5492 27.7928 13.2826 28.7538 12.899 30.1442C12.5153 31.5346 13.1093 33.0094 14.3498 33.7454C15.5898 34.4815 17.1697 34.2967 18.2061 33.2936L21.912 35.153C22.3425 35.3685 22.8646 35.2676 23.1847 34.9078L31.0624 26.0453L38.8062 31.848C39.2216 32.1593 39.8016 32.126 40.1784 31.7694L46.9088 25.3941V41.6564H10.6611V17.1359H46.9088V22.4566L39.3658 29.5997L31.5569 23.7455C31.1134 23.4133 30.4892 23.4758 30.1207 23.8897L22.1348 32.8751L19.1493 31.3821C19.1712 31.254 19.1847 31.1249 19.19 30.9953C19.19 29.2291 17.7579 27.797 15.9916 27.797ZM17.0577 30.9953C17.0577 31.5841 16.5804 32.0614 15.9916 32.0614C15.4029 32.0614 14.9255 31.5841 14.9255 30.9953C14.9255 30.4066 15.4029 29.9292 15.9916 29.9292C16.5804 29.9292 17.0577 30.4066 17.0577 30.9953ZM23.4544 48.0531H34.1155V49.1192C34.1155 49.7079 33.6381 50.1853 33.0494 50.1853H24.5205C23.9317 50.1853 23.4544 49.7079 23.4544 49.1192V48.0531ZM2.13222 49.1192C2.13222 48.5304 2.60957 48.0531 3.19833 48.0531H21.3222V49.1192C21.3222 50.8854 22.7542 52.3175 24.5205 52.3175H33.0494C34.8156 52.3175 36.2477 50.8854 36.2477 49.1192V48.0531H54.3715C54.9603 48.0531 55.4376 48.5304 55.4376 49.1192V53.3836C55.4376 53.9723 54.9603 54.4497 54.3715 54.4497H3.19833C2.60957 54.4497 2.13222 53.9723 2.13222 53.3836V49.1192Z" fill="#2E2F42"/>
    </g>
    <defs>
    <clipPath id="clip0_1065748_1968">
    <rect width="64" height="64" fill="white"/>
    </clipPath>
    </defs>
    </svg>
  </symbol>

  <symbol id="icon-astronaut" viewBox="0 0 24 24" fill="none">
    <svg width="64" height="64" viewBox="0 0 64 64" fill="none" xmlns="http://www.w3.org/2000/svg">
    <path d="M63.9481 9.04812C63.8222 8.66299 63.4894 8.38149 63.0873 8.32274L59.2665 7.76698L57.5566 4.30455C57.1982 3.57492 56.0025 3.57492 55.6441 4.30455L53.9342 7.76698L50.1132 8.32286C49.7111 8.38149 49.3784 8.66212 49.2514 9.04825C49.1266 9.43438 49.23 9.85889 49.5212 10.1416L52.2872 12.8372L51.6344 16.6431C51.5661 17.0431 51.7304 17.4474 52.0579 17.6864C52.3897 17.9275 52.8227 17.9573 53.1822 17.7674L56.5998 15.97L60.0175 17.7674C60.1733 17.8495 60.345 17.89 60.5146 17.89C60.7354 17.89 60.9563 17.8218 61.1419 17.6863C61.4704 17.4474 61.6347 17.043 61.5654 16.643L60.9127 12.8371L63.6786 10.1415C63.9683 9.85776 64.073 9.43425 63.9481 9.04812ZM59.0223 11.702C58.7716 11.9463 58.6564 12.3004 58.7161 12.6461L59.098 14.8743L57.097 13.8226C56.9412 13.7404 56.7706 13.6999 56.5998 13.6999C56.4292 13.6999 56.2596 13.7404 56.1027 13.8226L54.1016 14.8743L54.4834 12.6461C54.5432 12.3004 54.4279 11.9474 54.1773 11.702L52.557 10.1234L54.7949 9.79801C55.1427 9.74788 55.4425 9.52926 55.5982 9.2145L56.5987 7.18785L57.5992 9.2145C57.755 9.52913 58.0547 9.74788 58.4025 9.79801L60.6404 10.1234L59.0223 11.702Z" fill="#4D5AE5"/>
    <path d="M52.2669 41.0444H50.1335V43.1778H52.2669V41.0444Z" fill="#4D5AE5"/>
    <path d="M52.2669 45.3112H50.1335V47.4446H52.2669V45.3112Z" fill="#4D5AE5"/>
    <path d="M54.4004 43.1778L52.2669 43.1778V45.3112L54.4004 45.3112V43.1778Z" fill="#4D5AE5"/>
    <path d="M50.1335 43.1778L48.0002 43.1778V45.3112L50.1335 45.3112V43.1778Z" fill="#4D5AE5"/>
    <path d="M44.8001 52.778H42.6667V54.9113H44.8001V52.778Z" fill="#4D5AE5"/>
    <path d="M44.8001 57.0446H42.6667V59.178H44.8001V57.0446Z" fill="#4D5AE5"/>
    <path d="M46.9336 54.9114L44.8001 54.9113V57.0446L46.9336 57.0448V54.9114Z" fill="#4D5AE5"/>
    <path d="M42.6667 54.9113L40.5333 54.9114V57.0448L42.6667 57.0446V54.9113Z" fill="#4D5AE5"/>
    <path d="M32 48.5113H29.8666V50.6447H32V48.5113Z" fill="#4D5AE5"/>
    <path d="M32 52.778H29.8666V54.9113H32V52.778Z" fill="#4D5AE5"/>
    <path d="M34.1334 50.6445L32 50.6447V52.778L34.1334 52.7779V50.6445Z" fill="#4D5AE5"/>
    <path d="M29.8666 50.6447L27.7332 50.6445V52.7779L29.8666 52.778V50.6447Z" fill="#4D5AE5"/>
    <path d="M11.733 12.244H9.59961V14.3774H11.733V12.244Z" fill="#4D5AE5"/>
    <path d="M11.733 16.5107H9.59961V18.6442H11.733V16.5107Z" fill="#4D5AE5"/>
    <path d="M13.8663 14.3774L11.733 14.3774V16.5107L13.8663 16.5108V14.3774Z" fill="#4D5AE5"/>
    <path d="M9.59961 14.3774L7.46619 14.3774V16.5108L9.59961 16.5107V14.3774Z" fill="#4D5AE5"/>
    <path d="M49.4295 28.3189C48.8546 27.5434 48.0109 27.0443 47.053 26.9098C46.0908 26.7733 45.1414 27.026 44.3734 27.6138L41.8699 29.5327L41.8688 29.5338L38.0734 32.368L35.3577 31.2863C40.2004 29.1135 43.585 24.2697 43.585 18.6461C43.585 11.0001 37.3396 4.7793 29.6627 4.7793C21.9858 4.7793 15.7405 11.0001 15.7405 18.6461C15.7405 21.4174 16.5692 23.9945 17.9805 26.163L12.4529 26.115C12.4497 26.115 12.4465 26.115 12.4433 26.115C12.4262 26.115 12.4124 26.1235 12.3964 26.1246C12.2908 26.1289 12.1873 26.1503 12.086 26.1865C12.0604 26.1961 12.0338 26.2015 12.0093 26.2131C11.9965 26.2185 11.9837 26.2195 11.9709 26.2259L5.50468 29.4184C5.50356 29.4184 5.50256 29.4184 5.50256 29.4194L1.71575 31.2405C1.67412 31.2586 1.6315 31.2831 1.58987 31.3108C0.0804746 32.3156 -0.433659 34.289 0.393104 35.9018C0.833611 36.7594 1.5835 37.3909 2.50514 37.6799C2.86039 37.7908 3.22302 37.8453 3.58353 37.8453C4.16279 37.8453 4.73667 37.7034 5.26243 37.4229L8.03798 35.9467L12.566 33.6085L15.2797 33.5925L4.39629 44.4237C4.39529 44.4248 4.39417 44.4248 4.39304 44.4258L1.71563 47.0924C1.08312 47.7218 0.73536 48.557 0.73536 49.4477C0.73536 50.3374 1.08312 51.1746 1.71563 51.8051C2.36526 52.4515 3.21965 52.7758 4.07404 52.7758C4.92955 52.7758 5.78281 52.4515 6.43457 51.8051L9.06287 49.1875L12.5445 46.5879L14.3462 48.3821L10.8229 51.8904C10.8219 51.8915 10.8208 51.8915 10.8196 51.8925L8.14223 54.5592C7.50972 55.1886 7.16196 56.0237 7.16196 56.9145C7.16196 57.8041 7.50972 58.6414 8.14223 59.2719C8.79186 59.9183 9.64738 60.2425 10.5018 60.2425C11.3562 60.2425 12.2117 59.9183 12.8623 59.2719L19.8255 52.3385C19.8267 52.3374 19.8267 52.3364 19.8277 52.3353L21.8469 50.3352L21.8394 50.3277C21.8522 50.315 21.8703 50.3106 21.8832 50.2969L32.2151 38.9804L39.1571 39.9682C39.2072 39.9757 39.2573 39.9788 39.3075 39.9788C39.4366 39.9788 39.5613 39.948 39.6819 39.9021C39.7171 39.8893 39.748 39.8722 39.7811 39.8552C39.8195 39.836 39.86 39.8253 39.8964 39.8008L46.3231 35.5341C46.3466 35.5181 46.3593 35.4925 46.3817 35.4755C46.4073 35.4553 46.4393 35.4468 46.4627 35.4243L49.0056 33.0424C50.3288 31.8026 50.5111 29.7717 49.4295 28.3189ZM4.26079 35.5403C3.91416 35.7259 3.52053 35.7631 3.14402 35.6438C2.77064 35.5275 2.46776 35.2725 2.29063 34.928C1.9685 34.3008 2.15513 33.537 2.71939 33.1242L5.34668 31.8602L6.24482 34.4853L4.26079 35.5403ZM11.255 31.8848L8.15848 33.4849L7.28071 30.9183L11.3342 28.9172L11.255 31.8848ZM41.4539 18.644C41.4539 20.4808 41.0155 22.2132 40.256 23.763L31.8932 19.9645C31.8057 18.8179 31.2106 17.8141 30.3167 17.189L33.2447 7.46834C38.0001 8.98099 41.4539 13.4173 41.4539 18.644ZM17.876 18.644C17.876 12.1745 23.1646 6.91045 29.6649 6.91045C30.1706 6.91045 30.6655 6.95308 31.1551 7.01496L28.291 16.5224C28.2527 16.5212 28.2164 16.5106 28.1769 16.5106C26.1118 16.5106 24.4317 18.1853 24.4317 20.244C24.4317 22.3027 26.1118 23.9775 28.1769 23.9775C29.5657 23.9775 30.7657 23.2106 31.4132 22.0883L39.1381 25.5977C36.9887 28.4905 33.5486 30.3776 29.6648 30.3776C23.1646 30.3776 17.876 25.1135 17.876 18.644ZM29.7887 20.244C29.7887 21.1262 29.0654 21.8441 28.1769 21.8441C27.2884 21.8441 26.5651 21.1262 26.5651 20.244C26.5651 19.3619 27.2884 18.644 28.1769 18.644C29.0654 18.644 29.7887 19.3619 29.7887 20.244ZM4.92968 50.2925C4.45717 50.7608 3.69228 50.7598 3.2209 50.2936C2.99365 50.0664 2.86889 49.7667 2.86889 49.4477C2.86889 49.1299 2.99365 48.8301 3.2209 48.6051L5.14505 46.6882L6.84746 48.3832L4.92968 50.2925ZM11.3574 57.7594C10.8849 58.2276 10.119 58.2287 9.6475 57.7605C9.42025 57.5332 9.29549 57.2336 9.29549 56.9146C9.29549 56.5967 9.42025 56.297 9.6475 56.072L11.5729 54.1541L13.2764 55.8491L11.3574 57.7594ZM18.3208 50.8216C18.3196 50.8226 18.3186 50.8226 18.3175 50.8238L14.7878 54.3438L13.0843 52.6488L16.6107 49.1384C16.6107 49.1384 16.6107 49.1384 16.6107 49.1374C16.6119 49.1362 16.6129 49.1362 16.614 49.1352C16.694 49.0552 16.7441 48.9592 16.7932 48.8643C16.8071 48.8366 16.8337 48.8131 16.8455 48.7843C16.8786 48.7022 16.8839 48.6137 16.8967 48.5272C16.9031 48.4781 16.9245 48.4323 16.9245 48.3821C16.9245 48.3106 16.8989 48.2413 16.884 48.1708C16.8712 48.1068 16.8712 48.0417 16.8466 47.98C16.8061 47.8797 16.7367 47.7912 16.6642 47.7047C16.644 47.6812 16.6365 47.6513 16.6141 47.629C16.6141 47.629 16.6141 47.629 16.613 47.629C16.6119 47.628 16.6119 47.6257 16.6109 47.6247L13.3969 44.4247C13.3628 44.3905 13.3191 44.3767 13.2807 44.3479C13.2242 44.3042 13.1698 44.2637 13.1068 44.2327C13.0461 44.2028 12.9842 44.1847 12.9202 44.1675C12.8519 44.1483 12.7858 44.1334 12.7143 44.128C12.6492 44.1238 12.5884 44.1302 12.5234 44.1377C12.4519 44.1462 12.3848 44.1558 12.3154 44.1782C12.2482 44.1995 12.1885 44.2325 12.1267 44.2678C12.0872 44.2902 12.0424 44.2977 12.005 44.3254L8.45836 46.9729L6.6567 45.1788L11.4547 40.4065L20.1759 48.9837L18.3208 50.8216ZM31.9584 36.7883C31.9275 36.784 31.8986 36.7958 31.8677 36.7937C31.7898 36.7894 31.7152 36.7948 31.6373 36.8075C31.5766 36.8182 31.519 36.8299 31.4613 36.8502C31.3931 36.8737 31.3312 36.9057 31.2682 36.944C31.2085 36.9803 31.1541 37.0187 31.1018 37.0667C31.0762 37.089 31.0453 37.0998 31.0218 37.1253L21.6253 47.4167L12.9692 38.9034L18.6354 33.2671C19.0525 32.8511 19.0546 32.1758 18.6386 31.7577C18.4285 31.5476 18.1523 31.4441 17.876 31.4452L13.4386 31.4708L13.4941 28.2559L19.7022 28.3093C22.2323 30.8971 25.7609 32.511 29.6649 32.511C30.5396 32.511 31.393 32.4203 32.2239 32.2656C32.3039 32.3296 32.3827 32.3947 32.4831 32.4352L37.3024 34.3553L37.9637 37.6427L31.9584 36.7883ZM40.0406 37.1445L39.4145 34.0287L42.3073 31.8687L44.2007 34.3818L40.0406 37.1445ZM47.5478 31.4826L45.8721 33.0527L44.0097 30.5802L45.6726 29.3055C45.9829 29.0667 46.3745 28.9695 46.7585 29.0197C47.1446 29.074 47.486 29.2757 47.7185 29.5882C48.1516 30.1717 48.078 30.9856 47.5478 31.4826Z" fill="#2E2F42"/>
    <path d="M27.2041 37.0881L22.9182 32.8214C22.5033 32.4065 21.829 32.4065 21.413 32.8214L17.1282 37.0881C16.9277 37.2897 16.8146 37.5606 16.8146 37.8444C16.8146 38.1281 16.9266 38.4001 17.1282 38.6006L21.413 42.8673C21.621 43.0742 21.8942 43.1777 22.1662 43.1777C22.4382 43.1777 22.7112 43.0742 22.9182 42.8673L27.2041 38.6006C27.4046 38.4001 27.5187 38.1281 27.5187 37.8444C27.5187 37.5606 27.4056 37.2886 27.2041 37.0881ZM22.1662 40.606L19.3927 37.8444L22.1662 35.0827L24.9406 37.8444L22.1662 40.606Z" fill="#2E2F42"/>
    <path d="M34.3285 10.1415L33.8132 12.2131C33.9551 12.2483 37.2885 13.1166 37.2885 16.5108H39.4219C39.4218 12.4765 36.0906 10.5799 34.3285 10.1415Z" fill="#2E2F42"/>
    <path d="M39.422 18.644H37.2886V20.7775H39.422V18.644Z" fill="#2E2F42"/>
    </svg>
  </symbol>

  <symbol id="icon-send" viewBox="0 0 24 24" fill="none">
  <svg width="24" height="20" viewBox="0 0 24 20" fill="none" xmlns="http://www.w3.org/2000/svg">
<path d="M24 0L0 11.25L7.66994 13.6172L19.5 4.375L10.5017 14.4913L10.509 14.4936L10.5 14.4913V20L14.8013 15.8183L20.2501 17.5L24 0Z" fill="white"/>
</svg>
  </symbol>

    <symbol id="icon-phone" viewBox="0 0 18 24" fill="none">
    <path d="M14.2263 14.3651L12.3881 14.1552C11.9467 14.1046 11.5125 14.2566 11.2013 14.5677L9.86971 15.8993C7.8217 14.8572 6.14276 13.1855 5.10067 11.1303L6.43947 9.79144C6.75065 9.48025 6.90263 9.04605 6.85197 8.6046L6.6421 6.78092C6.55526 6.05 5.94013 5.5 5.20198 5.5H3.95002C3.13226 5.5 2.452 6.18026 2.50266 6.99802C2.88621 13.1783 7.82894 18.1138 14.0019 18.4973C14.8197 18.548 15.4999 17.8677 15.4999 17.05V15.798C15.5072 15.0671 14.9572 14.452 14.2263 14.3651Z" fill="#2E2F42"/>
  </symbol>

  <symbol id="icon-close" viewBox="0 0 8 8" fill="none">
    <g clip-path="url(#clip0_1082732_226)">
    <path d="M8 0.805714L7.19429 0L4 3.19429L0.805714 0L0 0.805714L3.19429 4L0 7.19429L0.805714 8L4 4.80571L7.19429 8L8 7.19429L4.80571 4L8 0.805714Z" fill="#2E2F42"/>
    </g>
    <defs>
    <clipPath id="clip0_1082732_226">
    <rect width="8" height="8" fill="white"/>
    </clipPath>
    </defs>
  </symbol>

  <symbol id="icon-person" viewBox="0 0 18 24" fill="none">
    <path d="M9 12C10.6575 12 12 10.6575 12 9C12 7.3425 10.6575 6 9 6C7.3425 6 6 7.3425 6 9C6 10.6575 7.3425 12 9 12ZM9 13.5C6.9975 13.5 3 14.505 3 16.5V17.25C3 17.6625 3.3375 18 3.75 18H14.25C14.6625 18 15 17.6625 15 17.25V16.5C15 14.505 11.0025 13.5 9 13.5Z" fill="#4D5AE5"/>
  </symbol>

  <symbol id="icon-check-mark" viewBox="0 0 10 8" fill="none">
    <path d="M8.44558 0.255056C8.61838 0.089653 8.84834 -0.00178848 9.08693 2.65108e-05C9.32551 0.0018415 9.55407 0.0967713 9.72436 0.264784C9.89466 0.432797 9.99337 0.660752 9.99968 0.900549C10.006 1.14034 9.91939 1.37323 9.75816 1.55005L4.86357 7.70436C4.77941 7.79551 4.67782 7.86865 4.5649 7.91942C4.45198 7.97018 4.33003 7.99754 4.20636 7.99984C4.08268 8.00214 3.95981 7.97935 3.8451 7.93282C3.73038 7.88629 3.62618 7.81698 3.53872 7.72903L0.292827 4.46564C0.202435 4.38096 0.129933 4.27884 0.0796475 4.16537C0.0293621 4.05191 0.00232279 3.92942 0.000143182 3.80522C-0.00203643 3.68102 0.0206883 3.55765 0.0669613 3.44248C0.113234 3.3273 0.182108 3.22267 0.269473 3.13483C0.356838 3.047 0.460905 2.97775 0.575465 2.93123C0.690026 2.88471 0.812734 2.86186 0.936267 2.86405C1.0598 2.86624 1.18163 2.89343 1.29449 2.94398C1.40734 2.99454 1.50892 3.06743 1.59315 3.15831L4.16189 5.73967L8.42227 0.28219C8.42994 0.272694 8.43813 0.263635 8.4468 0.255056H8.44558Z" fill="#F4F4FD"/>
  </symbol>

  <symbol id="icon-email" viewBox="0 0 24 24" fill="none">
    <path d="M15 6H3C2.175 6 1.5075 6.675 1.5075 7.5L1.5 16.5C1.5 17.325 2.175 18 3 18H15C15.825 18 16.5 17.325 16.5 16.5V7.5C16.5 6.675 15.825 6 15 6ZM14.7 9.1875L9.3975 12.5025C9.1575 12.6525 8.8425 12.6525 8.6025 12.5025L3.3 9.1875C3.1125 9.0675 3 8.865 3 8.6475C3 8.145 3.5475 7.845 3.975 8.1075L9 11.25L14.025 8.1075C14.4525 7.845 15 8.145 15 8.6475C15 8.865 14.8875 9.0675 14.7 9.1875Z" fill="#2E2F42"/>
  </symbol>


</svg>
